<?xml version="1.0" encoding="utf-8"?>
<svg id="master-artboard" viewBox="0 0 980 980" version="1.1" xmlns="http://www.w3.org/2000/svg" x="0px" y="0px" style="enable-background:new 0 0 336 235.2;" width="980px" height="980px"><rect id="ee-background" x="0" y="0" width="980" height="980" style="fill: white; fill-opacity: 0; pointer-events: none;"/><g transform="matrix(1.9140623807907104, 0, 0, 1.9140623807907104, -0.000030271366995293647, 0.00003253558315918781)"><path d="M 512 256 A 256 256 0 0 1 256 512 A 256 256 0 0 1 0 256 A 256 256 0 0 1 256 0 A 256 256 0 0 1 512 256 Z" style="fill:#78BAEB;"/><path style="fill:#59AAE7;" d="M256,0c-11.317,0-22.461,0.744-33.391,2.167C348.216,18.53,445.217,125.933,445.217,256&#10;&#9;s-97.002,237.47-222.609,253.833C233.539,511.256,244.683,512,256,512c141.385,0,256-114.616,256-256S397.385,0,256,0z"/><g>
</g><g>
</g><g>
</g><g>
</g><g>
</g><g>
</g><g>
</g><g>
</g><g>
</g><g>
</g><g>
</g><g>
</g><g>
</g><g>
</g><g>
</g></g><g transform="matrix(1.3218491077423096, 0, 0, 1.3218491077423096, 155.05210589624357, 174.26355014783053)"><g>
	<g>
		<g>
			<path style="fill: rgb(255, 255, 255);" d="M273.443,159.354l0.122-41.951c0-21.857,1.52-33.561,32.831-33.561h57.941V0h-83.021&#10;&#9;&#9;&#9;&#9;c-80.559,0-99.102,41.617-99.102,109.985l0.091,49.369l-61.133,0.03v83.811h61.133v243.196h91.168l0.061-243.196l82.778-0.03&#10;&#9;&#9;&#9;&#9;l8.907-83.811H273.443z"/>
		</g>
	</g>
	<g>
	</g>
	<g>
	</g>
	<g>
	</g>
	<g>
	</g>
	<g>
	</g>
	<g>
	</g>
	<g>
	</g>
	<g>
	</g>
	<g>
	</g>
	<g>
	</g>
	<g>
	</g>
	<g>
	</g>
	<g>
	</g>
	<g>
	</g>
	<g>
	</g>
</g><g>
</g><g>
</g><g>
</g><g>
</g><g>
</g><g>
</g><g>
</g><g>
</g><g>
</g><g>
</g><g>
</g><g>
</g><g>
</g><g>
</g><g>
</g></g></svg>