<?xml version="1.0" encoding="utf-8"?>
<svg id="master-artboard" viewBox="0 0 731.2222900390625 665.3719482421875" version="1.1" xmlns="http://www.w3.org/2000/svg" x="0px" y="0px" style="enable-background:new 0 0 1400 980;" width="731.2222900390625px" height="665.3719482421875px"><g transform="matrix(1, 0, 0, 1, -0.0000068160607042955235, 0.00003327573222122737)"><rect id="ee-background" x="0" y="0" width="731.2222900390625" height="665.3719482421875" style="fill: white; fill-opacity: 0; pointer-events: none;"/><g transform="matrix(0.41564294695854187, 0, 0, 0.41564294695854187, -74.89949013536943, 176.23814946471842)"><g id="g-1" transform="matrix(1, 0, 0, 1, 0, 0)">
	<g id="g-2">
		<path class="st0" d="M652,46c27.6,0,50,22.4,50,50s-22.4,50-50,50s-50-22.4-50-50S624.4,46,652,46z" style="fill: rgb(255, 255, 255);"/>
	</g>
</g></g><g transform="matrix(0.5759690999984741, 0, 0, 0.5759690999984741, -280.9687832713666, 205.94985925663744)"><g id="g-5" transform="matrix(1, 0, 0, 1, 0, 0)">
	<g id="g-6">
		<path class="st0" d="M652,46c27.6,0,50,22.4,50,50s-22.4,50-50,50s-50-22.4-50-50S624.4,46,652,46z" style="fill: rgb(255, 255, 255);"/>
	</g>
</g></g><g transform="matrix(0.5594441294670105, 0, 0, 0.5594441294670105, -68.45594693881912, 76.04232328196804)"><g id="g-9" transform="matrix(1, 0, 0, 1, 0, 0)">
	<g id="g-10">
		<path class="st0" d="M652,46c27.6,0,50,22.4,50,50s-22.4,50-50,50s-50-22.4-50-50S624.4,46,652,46z" style="fill: rgb(255, 255, 255);"/>
	</g>
</g></g><g id="g-11" transform="matrix(0.3278416991233825, 0, 0, 0.32784169912338257, 435.492129550246, 316.7339295419556)">
	<g id="g-12">
		<path class="st0" d="M652,46c27.6,0,50,22.4,50,50s-22.4,50-50,50s-50-22.4-50-50S624.4,46,652,46z" style="fill: rgb(255, 255, 255);"/>
	</g>
</g><g id="g-13" transform="matrix(0.32784193754196167, 0, 0, 0.3278419375419617, -10.66605866079226, 438.8785082261552)">
	<g id="g-14">
		<path class="st0" d="M652,46c27.6,0,50,22.4,50,50s-22.4,50-50,50s-50-22.4-50-50S624.4,46,652,46z" style="fill: rgb(255, 255, 255);"/>
	</g>
</g><g transform="matrix(0.4900488448476608, 0, 0, 0.4900488448476608, 209.2024318589607, 493.5053418396881)"><g id="g-15" transform="matrix(1, 0, 0, 1, 0, 0)">
	<g id="g-16">
		<path class="st0" d="M652,46c27.6,0,50,22.4,50,50s-22.4,50-50,50s-50-22.4-50-50S624.4,46,652,46z" style="fill: rgb(255, 255, 255);"/>
	</g>
</g></g><g transform="matrix(0.5594441294670105, 0, 0, 0.5594441294670105, -86.22195434570312, 557.6904296874998)"><g id="g-17" transform="matrix(1, 0, 0, 1, 0, 0)">
	<g id="g-18">
		<path class="st0" d="M652,46c27.6,0,50,22.4,50,50s-22.4,50-50,50s-50-22.4-50-50S624.4,46,652,46z" style="fill: rgb(255, 255, 255);"/>
	</g>
</g></g><g transform="matrix(0.41310871957412015, 0, 0, 0.41310871957412015, 294.38835034926996, 185.38151037170573)"><g id="g-19" transform="matrix(1, 0, 0, 1, 0, 0)">
	<g id="g-20">
		<path class="st0" d="M652,46c27.6,0,50,22.4,50,50s-22.4,50-50,50s-50-22.4-50-50S624.4,46,652,46z" style="fill: rgb(255, 255, 255);"/>
	</g>
</g></g><g transform="matrix(0.29478612542152405, 0, 0, 0.29478612542152405, 281.52029037475586, 43.860042572021484)"><g id="g-21" transform="matrix(1, 0, 0, 1, 0, 0)">
	<g id="g-22">
		<path class="st0" d="M652,46c27.6,0,50,22.4,50,50s-22.4,50-50,50s-50-22.4-50-50S624.4,46,652,46z" style="fill: rgb(255, 255, 255);"/>
	</g>
</g></g><g transform="matrix(0.32786971330642706, 0, 0, 0.327869713306427, -166.9364368973366, 397.8395093519697)"><g id="g-23" transform="matrix(1, 0, 0, 1, 0, 0)">
	<g id="g-24">
		<path class="st0" d="M652,46c27.6,0,50,22.4,50,50s-22.4,50-50,50s-50-22.4-50-50S624.4,46,652,46z" style="fill: rgb(255, 255, 255);"/>
	</g>
</g></g><g transform="matrix(3.707134962081909, 0, 0, 3.707134962081909, -1496.092716217041, -3231.889995574951)"><g id="g-25" transform="matrix(1, 0, 0, 1, 0, 0)">
	<g id="g-26">
		<g transform="matrix(1, 0, 0, 1, 6.298213481903048, -2.282428749863584)">
			<path class="st0" d="M 497.3 1022 C 491.40000000000003 1022 485.6 1019.3 482 1014.3 C 476.3 1015.9 470.2 1014.9 465.3 1011.4 C 460.5 1008 457.7 1002.5 457.7 996.6999999999999 C 452.2 994.8 447.8 990.4999999999999 445.9 984.8 C 444.09999999999997 979.0999999999999 445.09999999999997 973.0999999999999 448.59999999999997 968.5 C 445.2 963.8 444.29999999999995 957.8 446.2 952.2 C 448.2 946.6 452.7 942.3000000000001 458.2 940.5 C 458.3 934.7 461.2 929.3 466.09999999999997 925.9 C 470.99999999999994 922.5 477.2 921.6 482.9 923.3 C 484.7 921 487 919.0999999999999 489.7 917.8 C 494.3 915.5999999999999 499.5 915.3 504.3 917 C 508.2 918.4 511.5 920.9 513.7 924.2 C 519.7 922.2 526.4000000000001 923.2 531.5 927 C 536.2 930.5 538.9 936.1 538.8 941.9 C 544.3 943.9 548.5999999999999 948.3 550.3 954 L 550.3 954 C 552 959.7 550.8 965.7 547.3 970.2 C 550.5999999999999 975 551.4 981 549.3 986.6 C 547.1999999999999 992.2 542.5999999999999 996.4 537.0999999999999 998 C 536.8999999999999 1003.8 533.8999999999999 1009.2 528.8999999999999 1012.4 C 523.8999999999999 1015.6999999999999 517.6999999999998 1016.5 512.0999999999999 1014.6 C 510.5999999999999 1016.5 508.5999999999999 1018.1 506.4999999999999 1019.3000000000001 C 503.5 1021.2 500.4 1022 497.3 1022 Z M 486.3736938476562 951.1419189453125 C 500.0605644715054 954.3026323354925 481.67120460011733 987.0908205267227 493.22086791992183 989.8314697265624 C 511.802978515625 994.2409057617188 500.5709253790029 945.8175900691976 515.7366943359375 951.647265625 C 523.158447265625 954.5001831054688 504.8943786621094 991.2683715820312 519.9156127929688 990.5210815429688 C 534.9367980957031 989.7737426757812 530.1797646950083 956.8145387454306 526.5789184570312 948.3369384765624 C 523.3502807617188 940.735595703125 514.7422546386717 942.4211425781249 511.5422546386718 943.9211425781249 C 509.14225463867183 945.0211425781249 501.54750976562497 948.7422241210936 501.54750976562497 948.7422241210936 C 497.24750976562495 946.7422241210936 498.1686096191406 945.1685180664062 493.873876953125 943.5264282226561 C 489.5732134589831 941.8820753989881 480.09567754289475 936.3260083340087 473.54222412109374 941.1579589843749 C 469.1269836425781 944.4133911132812 468.01552702500965 947.0773197659047 466.7001220703125 951.0368164062498 C 465.2643506882007 955.3586450453263 454.4421691894531 985.30517578125 467.2896423339844 987.7315307617185 C 480.1371154785156 990.1578369140625 474.98974609375 948.5130004882812 486.3736938476562 951.1419189453125 Z" style="fill: rgb(255, 255, 255);"/>
		<path d="M 561.6671752929688 1042.916015625 L 563.640869140625 1009.3632202148438" style="fill: rgb(255, 255, 255); fill-opacity: 1; stroke: rgb(0, 0, 0); stroke-opacity: 1; stroke-width: 0; paint-order: fill;"/><path d="M 422.71856689453125 934.7576904296875" style="fill: rgb(255, 255, 255); fill-opacity: 1; stroke: rgb(0, 0, 0); stroke-opacity: 1; stroke-width: 0; paint-order: fill;"/><path d="M 414.8237609863281 966.3367919921875 L 414.8237609863281 966.3367919921875" style="fill: rgb(255, 255, 255); fill-opacity: 1; stroke: rgb(0, 0, 0); stroke-opacity: 1; stroke-width: 0; paint-order: fill;"/><path d="M 406.5342102050781 978.1788940429688" style="fill: rgb(255, 255, 255); fill-opacity: 1; stroke: rgb(0, 0, 0); stroke-opacity: 1; stroke-width: 0; paint-order: fill;"/></g>
	</g>
</g></g></g></svg>