<?xml version="1.0" encoding="utf-8"?>
<svg id="master-artboard" viewBox="0 0 731.2222900390625 665.3719482421875" version="1.1" xmlns="http://www.w3.org/2000/svg" x="0px" y="0px" style="enable-background:new 0 0 1400 980;" width="731.2222900390625px" height="665.3719482421875px"><rect id="ee-background" x="0" y="0" width="731.2222900390625" height="665.3719482421875" style="fill: white; fill-opacity: 0; pointer-events: none;"/><g transform="matrix(0.4156429171562195, 0, 0, 0.4156429171562195, -76.36284601647105, 179.16483940291297)"><g id="g-1" transform="matrix(1, 0, 0, 1, 0, 0)">
	<g id="g-2">
		<path class="st0" d="M652,46c27.6,0,50,22.4,50,50s-22.4,50-50,50s-50-22.4-50-50S624.4,46,652,46z" style="fill: rgb(255, 255, 255);"/>
	</g>
</g></g><g transform="matrix(0.5759690999984741, 0, 0, 0.5759690999984741, -302.9191226893162, 205.94986739111584)"><g id="g-5" transform="matrix(1, 0, 0, 1, 0, 0)">
	<g id="g-6">
		<path class="st0" d="M652,46c27.6,0,50,22.4,50,50s-22.4,50-50,50s-50-22.4-50-50S624.4,46,652,46z" style="fill: rgb(255, 255, 255);"/>
	</g>
</g></g><g transform="matrix(0.5594441294670105, 0, 0, 0.5594441294670105, -72.84601485605356, 32.14188802124676)"><g id="g-9" transform="matrix(1, 0, 0, 1, 0, 0)">
	<g id="g-10">
		<path class="st0" d="M652,46c27.6,0,50,22.4,50,50s-22.4,50-50,50s-50-22.4-50-50S624.4,46,652,46z" style="fill: rgb(255, 255, 255);"/>
	</g>
</g></g><g id="g-11" transform="matrix(0.32784172892570496, 0, 0, 0.327841728925705, 431.10205948476687, 274.2968327471174)">
	<g id="g-12">
		<path class="st0" d="M652,46c27.6,0,50,22.4,50,50s-22.4,50-50,50s-50-22.4-50-50S624.4,46,652,46z" style="fill: rgb(255, 255, 255);"/>
	</g>
</g><g id="g-13" transform="matrix(0.32784193754196167, 0, 0, 0.3278419375419617, -10.66605866079226, 438.8785082261552)">
	<g id="g-14">
		<path class="st0" d="M652,46c27.6,0,50,22.4,50,50s-22.4,50-50,50s-50-22.4-50-50S624.4,46,652,46z" style="fill: rgb(255, 255, 255);"/>
	</g>
</g><g transform="matrix(0.4900488257408142, 0, 0, 0.4900488257408142, 235.54284023495336, 440.82482189991026)"><g id="g-15" transform="matrix(1, 0, 0, 1, 0, 0)">
	<g id="g-16">
		<path class="st0" d="M652,46c27.6,0,50,22.4,50,50s-22.4,50-50,50s-50-22.4-50-50S624.4,46,652,46z" style="fill: rgb(255, 255, 255);"/>
	</g>
</g></g><g transform="matrix(0.5594441294670105, 0, 0, 0.5594441294670105, -77.44182038554948, 540.1302567954126)"><g id="g-17" transform="matrix(1, 0, 0, 1, 0, 0)">
	<g id="g-18">
		<path class="st0" d="M652,46c27.6,0,50,22.4,50,50s-22.4,50-50,50s-50-22.4-50-50S624.4,46,652,46z" style="fill: rgb(255, 255, 255);"/>
	</g>
</g></g><g transform="matrix(0.4131086468696594, 0, 0, 0.4131086468696594, 366.09276352289567, 91.72726007846444)"><g id="g-19" transform="matrix(1, 0, 0, 1, 0, 0)">
	<g id="g-20">
		<path class="st0" d="M652,46c27.6,0,50,22.4,50,50s-22.4,50-50,50s-50-22.4-50-50S624.4,46,652,46z" style="fill: rgb(255, 255, 255);"/>
	</g>
</g></g><g transform="matrix(0.6898899898612172, 0, 0, 0.6898899898612172, 49.52119186902348, 5.198396903132515)"><g id="g-21" transform="matrix(1, 0, 0, 1, 0, 0)">
	<g id="g-22">
		<path class="st0" d="M652,46c27.6,0,50,22.4,50,50s-22.4,50-50,50s-50-22.4-50-50S624.4,46,652,46z" style="fill: rgb(255, 255, 255);"/>
	</g>
</g></g><g transform="matrix(0.32786971330642706, 0, 0, 0.327869713306427, -117.18234038105209, 389.0594242012554)"><g id="g-23" transform="matrix(1, 0, 0, 1, 0, 0)">
	<g id="g-24">
		<path class="st0" d="M652,46c27.6,0,50,22.4,50,50s-22.4,50-50,50s-50-22.4-50-50S624.4,46,652,46z" style="fill: rgb(255, 255, 255);"/>
	</g>
</g></g><g transform="matrix(3.707134962081909, 0, 0, 3.707134962081909, -1496.092716217041, -3231.889995574951)"><g id="g-25" transform="matrix(1, 0, 0, 1, 0, 0)">
	<g id="g-26">
		<g transform="matrix(1, 0, 0, 1, 6.298213481903048, -2.282428749863584)">
			
		<path d="M 561.6671752929688 1042.916015625 L 563.640869140625 1009.3632202148438" style="fill: rgb(255, 255, 255); fill-opacity: 1; stroke: rgb(0, 0, 0); stroke-opacity: 1; stroke-width: 0; paint-order: fill;"/><path d="M 422.71856689453125 934.7576904296875" style="fill: rgb(255, 255, 255); fill-opacity: 1; stroke: rgb(0, 0, 0); stroke-opacity: 1; stroke-width: 0; paint-order: fill;"/><path d="M 414.8237609863281 966.3367919921875 L 414.8237609863281 966.3367919921875" style="fill: rgb(255, 255, 255); fill-opacity: 1; stroke: rgb(0, 0, 0); stroke-opacity: 1; stroke-width: 0; paint-order: fill;"/><path d="M 406.5342102050781 978.1788940429688" style="fill: rgb(255, 255, 255); fill-opacity: 1; stroke: rgb(0, 0, 0); stroke-opacity: 1; stroke-width: 0; paint-order: fill;"/><path d="M 707.3263549804688 897.6522827148438" style="fill: rgb(255, 255, 255); fill-opacity: 1; stroke: rgb(0, 0, 0); stroke-opacity: 1; stroke-width: 0; paint-order: fill;"/><path class="st0" d="M 497.3 1022 C 491.40000000000003 1022 485.6 1019.3 482 1014.3 C 476.3 1015.9 470.2 1014.9 465.3 1011.4 C 460.5 1008 457.7 1002.5 457.7 996.6999999999999 C 452.2 994.8 447.8 990.4999999999999 445.9 984.8 C 444.09999999999997 979.0999999999999 445.09999999999997 973.0999999999999 448.59999999999997 968.5 C 445.2 963.8 444.29999999999995 957.8 446.2 952.2 C 448.2 946.6 452.7 942.3000000000001 458.2 940.5 C 458.3 934.7 461.2 929.3 466.09999999999997 925.9 C 470.99999999999994 922.5 477.2 921.6 482.9 923.3 C 484.7 921 487 919.0999999999999 489.7 917.8 C 494.3 915.5999999999999 499.5 915.3 504.3 917 C 508.2 918.4 511.5 920.9 513.7 924.2 C 519.7 922.2 526.4000000000001 923.2 531.5 927 C 536.2 930.5 538.9 936.1 538.8 941.9 C 544.3 943.9 548.5999999999999 948.3 550.3 954 L 550.3 954 C 552 959.7 550.8 965.7 547.3 970.2 C 550.5999999999999 975 551.4 981 549.3 986.6 C 547.1999999999999 992.2 542.5999999999999 996.4 537.0999999999999 998 C 536.8999999999999 1003.8 533.8999999999999 1009.2 528.8999999999999 1012.4 C 523.8999999999999 1015.6999999999999 517.6999999999998 1016.5 512.0999999999999 1014.6 C 510.5999999999999 1016.5 508.5999999999999 1018.1 506.4999999999999 1019.3000000000001 C 503.5 1021.2 500.4 1022 497.3 1022 Z M 493.4207763671875 984.2581420898437 C 493.4207763671875 984.2581420898437 514.8423974857656 927.0834100398206 492.05224609375 927.9630004882813 C 475.049072265625 928.6192626953125 474.89410400390625 991.6630859375 485.5732055664063 996.4421020507813 C 496.25225830078125 1001.2210693359375 526.3603687299199 1002.1991183935019 523.9998779296875 989.8368774414063 C 520.9424438476562 973.8245849609375 499.90746991652634 992.2729639159597 493.4207763671875 984.2581420898437 Z" style="fill: rgb(255, 255, 255);"/></g>
	</g>
</g></g><g transform="matrix(0.4156428873538971, 0, 0, 0.4156428873538971, 186.24337267297585, 584.513858943798)"><g id="g-29" transform="matrix(1, 0, 0, 1, 0, 0)">
	<g id="g-30">
		<path class="st0" d="M652,46c27.6,0,50,22.4,50,50s-22.4,50-50,50s-50-22.4-50-50S624.4,46,652,46z" style="fill: rgb(255, 255, 255);"/>
	</g>
</g></g></svg>