<?xml version="1.0" encoding="utf-8"?>
<svg id="master-artboard" viewBox="0 0 1024.8292846679688 916.9464111328125" version="1.1" xmlns="http://www.w3.org/2000/svg" x="0px" y="0px" style="enable-background:new 0 0 1400 980;" width="1024.8292236328125px" height="916.9464111328125px"><g transform="matrix(1.4728604555130005, 0, 0, 1.4728604555130005, -21.350601196289062, -34.679472529385976)"><rect id="ee-background" x="0" y="0" width="1024.829345703125" height="916.9464111328125" style="fill: white; fill-opacity: 0; pointer-events: none;"/><g transform="matrix(0.4156429171562195, 0, 0, 0.4156429171562195, -76.36284601647105, 179.16483940291297)"><g id="g-1" transform="matrix(1, 0, 0, 1, 0, 0)">
	<g id="g-2">
		<path class="st0" d="M652,46c27.6,0,50,22.4,50,50s-22.4,50-50,50s-50-22.4-50-50S624.4,46,652,46z" style="fill: rgb(255, 255, 255);"/>
	</g>
</g></g><g transform="matrix(0.7808388902476873, 0, 0, 0.7808388902476873, -432.1041762510414, 162.86876526228676)"><g id="g-5" transform="matrix(1, 0, 0, 1, 0, 0)">
	<g id="g-6">
		<path class="st0" d="M652,46c27.6,0,50,22.4,50,50s-22.4,50-50,50s-50-22.4-50-50S624.4,46,652,46z" style="fill: rgb(255, 255, 255);"/>
	</g>
</g></g><g transform="matrix(0.5594441294670105, 0, 0, 0.5594441294670105, -72.84601485605356, 32.14188802124676)"><g id="g-9" transform="matrix(1, 0, 0, 1, 0, 0)">
	<g id="g-10">
		<path class="st0" d="M652,46c27.6,0,50,22.4,50,50s-22.4,50-50,50s-50-22.4-50-50S624.4,46,652,46z" style="fill: rgb(255, 255, 255);"/>
	</g>
</g></g><g id="g-11" transform="matrix(0.7083121346733242, 0, 0, 0.7083121346733242, 202.05888446218128, 256.7952071889382)">
	<g id="g-12">
		<path class="st0" d="M652,46c27.6,0,50,22.4,50,50s-22.4,50-50,50s-50-22.4-50-50S624.4,46,652,46z" style="fill: rgb(255, 255, 255);"/>
	</g>
</g><g id="g-13" transform="matrix(0.32784193754196167, 0, 0, 0.3278419375419617, -10.66605866079226, 438.8785082261552)">
	<g id="g-14">
		<path class="st0" d="M652,46c27.6,0,50,22.4,50,50s-22.4,50-50,50s-50-22.4-50-50S624.4,46,652,46z" style="fill: rgb(255, 255, 255);"/>
	</g>
</g><g transform="matrix(0.6802848577499391, 0, 0, 0.6802848577499391, 104.92380631093874, 508.16796486401245)"><g id="g-15" transform="matrix(1, 0, 0, 1, 0, 0)">
	<g id="g-16">
		<path class="st0" d="M652,46c27.6,0,50,22.4,50,50s-22.4,50-50,50s-50-22.4-50-50S624.4,46,652,46z" style="fill: rgb(255, 255, 255);"/>
	</g>
</g></g><g transform="matrix(0.5594441294670105, 0, 0, 0.5594441294670105, -149.14624557855996, 522.5700761313503)"><g id="g-17" transform="matrix(1, 0, 0, 1, 0, 0)">
	<g id="g-18">
		<path class="st0" d="M652,46c27.6,0,50,22.4,50,50s-22.4,50-50,50s-50-22.4-50-50S624.4,46,652,46z" style="fill: rgb(255, 255, 255);"/>
	</g>
</g></g><g transform="matrix(0.41310858726501465, 0, 0, 0.41310858726501465, 328.0455262768339, 115.14082063101858)"><g id="g-19" transform="matrix(1, 0, 0, 1, 0, 0)">
	<g id="g-20">
		<path class="st0" d="M652,46c27.6,0,50,22.4,50,50s-22.4,50-50,50s-50-22.4-50-50S624.4,46,652,46z" style="fill: rgb(255, 255, 255);"/>
	</g>
</g></g><g transform="matrix(0.2947861254215241, 0, 0, 0.2947861254215241, 287.37371682955575, 23.373174197919724)"><g id="g-21" transform="matrix(1, 0, 0, 1, 0, 0)">
	<g id="g-22">
		<path class="st0" d="M652,46c27.6,0,50,22.4,50,50s-22.4,50-50,50s-50-22.4-50-50S624.4,46,652,46z" style="fill: rgb(255, 255, 255);"/>
	</g>
</g></g><g transform="matrix(0.5912735462188721, 0, 0, 0.591273546218872, -296.23846578763187, 365.2360586481136)"><g id="g-23" transform="matrix(1, 0, 0, 1, 0, 0)">
	<g id="g-24">
		<path class="st0" d="M652,46c27.6,0,50,22.4,50,50s-22.4,50-50,50s-50-22.4-50-50S624.4,46,652,46z" style="fill: rgb(255, 255, 255);"/>
	</g>
</g></g><g transform="matrix(3.707134962081909, 0, 0, 3.707134962081909, -1496.092716217041, -3231.889995574951)"><g id="g-25" transform="matrix(1.022814209732275, 0, 0, 1.022814209732275, -10.986478048575318, -21.14879981275035)">
	<g id="g-26">
		<g transform="matrix(1, 0, 0, 1, 6.298213481903048, -2.282428749863584)">
			
		<path d="M 561.6671752929688 1042.916015625 L 563.640869140625 1009.3632202148438" style="fill: rgb(255, 255, 255); fill-opacity: 1; stroke: rgb(0, 0, 0); stroke-opacity: 1; stroke-width: 0; paint-order: fill;"/><path d="M 422.71856689453125 934.7576904296875" style="fill: rgb(255, 255, 255); fill-opacity: 1; stroke: rgb(0, 0, 0); stroke-opacity: 1; stroke-width: 0; paint-order: fill;"/><path d="M 414.8237609863281 966.3367919921875 L 414.8237609863281 966.3367919921875" style="fill: rgb(255, 255, 255); fill-opacity: 1; stroke: rgb(0, 0, 0); stroke-opacity: 1; stroke-width: 0; paint-order: fill;"/><path d="M 406.5342102050781 978.1788940429688" style="fill: rgb(255, 255, 255); fill-opacity: 1; stroke: rgb(0, 0, 0); stroke-opacity: 1; stroke-width: 0; paint-order: fill;"/><path d="M 707.3263549804688 897.6522827148438" style="fill: rgb(255, 255, 255); fill-opacity: 1; stroke: rgb(0, 0, 0); stroke-opacity: 1; stroke-width: 0; paint-order: fill;"/><path style="fill: rgb(255, 255, 255); fill-opacity: 1; stroke: rgb(0, 0, 0); stroke-opacity: 1; stroke-width: 0; paint-order: fill;"/><path class="st0" d="M 497.3 1022 C 491.40000000000003 1022 485.6 1019.3 482 1014.3 C 476.3 1015.9 470.2 1014.9 465.3 1011.4 C 460.5 1008 457.7 1002.5 457.7 996.6999999999999 C 452.2 994.8 447.8 990.4999999999999 445.9 984.8 C 444.09999999999997 979.0999999999999 445.09999999999997 973.0999999999999 448.59999999999997 968.5 C 445.2 963.8 444.29999999999995 957.8 446.2 952.2 C 448.2 946.6 452.7 942.3000000000001 458.2 940.5 C 458.3 934.7 461.2 929.3 466.09999999999997 925.9 C 470.99999999999994 922.5 477.2 921.6 482.9 923.3 C 484.7 921 487 919.0999999999999 489.7 917.8 C 494.3 915.5999999999999 499.5 915.3 504.3 917 C 508.2 918.4 511.5 920.9 513.7 924.2 C 519.7 922.2 526.4000000000001 923.2 531.5 927 C 536.2 930.5 538.9 936.1 538.8 941.9 C 544.3 943.9 548.5999999999999 948.3 550.3 954 L 550.3 954 C 552 959.7 550.8 965.7 547.3 970.2 C 550.5999999999999 975 551.4 981 549.3 986.6 C 547.1999999999999 992.2 542.5999999999999 996.4 537.0999999999999 998 C 536.8999999999999 1003.8 533.8999999999999 1009.2 528.8999999999999 1012.4 C 523.8999999999999 1015.6999999999999 517.6999999999998 1016.5 512.0999999999999 1014.6 C 510.5999999999999 1016.5 508.5999999999999 1018.1 506.4999999999999 1019.3000000000001 C 503.5 1021.2 500.4 1022 497.3 1022 Z M 518.6841430664062 974.7844482421874 C 518.6841430664062 974.7844482421874 530.8435808822276 934.0963591389274 515.3419189453125 929.9366333007813 C 509.5345458984375 928.3782958984375 506.2009582519531 947.4820556640625 506.2009582519531 947.4820556640625 C 506.2009582519531 947.4820556640625 505.95751953125 961.3588256835938 506.3284912109375 969.38525390625 C 506.3697509765625 970.278076171875 491.7102355957031 958.9127807617188 491.7102355957031 958.9127807617188 C 491.7102355957031 958.9127807617188 518.9006958007812 934.28564453125 504.75006103515625 926.411865234375 C 495.15652634120823 921.0737743212693 485.37689208984375 952.0276489257812 485.37689208984375 952.0276489257812 C 485.37689208984375 952.0276489257812 473.96602510543903 923.4045042816165 466.06488037109375 931.4619750976562 C 456.0806579589844 941.6437377929688 476.9817199707031 957.977783203125 476.9817199707031 957.977783203125 C 476.9817199707031 957.977783203125 451.70037841796875 985.2059936523438 460.756103515625 993.3099975585938 C 470.4999987346064 1002.0298476054058 486.3982238769531 967.2437744140625 486.3982238769531 967.2437744140625 C 486.3982238769531 967.2437744140625 491.63317917263146 985.6727871782284 498.2146301269531 986.580078125 L 504.98797607421875 983.9002685546875 C 507.7021179199219 978.9437866210938 506.0584716796875 974.2507934570312 506.0584716796875 974.2507934570312 C 506.0584716796875 974.2507934570312 509.47688804852544 987.3132511118275 513.2050170898438 989.3368530273438 C 517.7099536954743 991.7820965059132 541.7811357291514 991.790400010938 540.5789794921875 982.3368774414063 C 538.7601215517021 968.0335706437149 525.1708366157451 986.0646701260048 518.6841430664062 974.7844482421874 Z" style="fill: rgb(255, 255, 255);" transform="matrix(1, 0, 0, 1, -1.578961282276424, -3.552643759122816)"/></g>
	</g>
</g></g><g transform="matrix(0.4156428873538971, 0, 0, 0.4156428873538971, 168.68310976523946, 506.95642470708344)"><g id="g-29" transform="matrix(1, 0, 0, 1, 0, 0)">
	<g id="g-30">
		<path class="st0" d="M652,46c27.6,0,50,22.4,50,50s-22.4,50-50,50s-50-22.4-50-50S624.4,46,652,46z" style="fill: rgb(255, 255, 255);"/>
	</g>
</g></g></g></svg>