<?xml version="1.0" encoding="utf-8"?>
<svg id="master-artboard" viewBox="0 0 982.3013305664062 980.7616577148438" version="1.1" xmlns="http://www.w3.org/2000/svg" x="0px" y="0px" style="enable-background:new 0 0 1400 980;" width="982.3013305664062px" height="980.7616577148438px"><rect id="ee-background" x="0" y="0" width="982.3013305664062" height="980.7616577148438" style="fill: white; fill-opacity: 0; pointer-events: none;"/><g transform="matrix(1.9140625, 0, 0, 1.9140625, 1.3958282470703125, 0.677473783493042)"><path d="M 512 256 A 256 256 0 0 1 256 512 A 256 256 0 0 1 0 256 A 256 256 0 0 1 256 0 A 256 256 0 0 1 512 256 Z" style="fill: rgb(62, 157, 240);"/><path style="fill: rgb(0, 142, 237);" d="M256,0c-11.317,0-22.461,0.744-33.391,2.167C348.216,18.53,445.217,125.933,445.217,256&#10;&#9;s-97.002,237.47-222.609,253.833C233.539,511.256,244.683,512,256,512c141.385,0,256-114.616,256-256S397.385,0,256,0z"/><g>
</g><g>
</g><g>
</g><g>
</g><g>
</g><g>
</g><g>
</g><g>
</g><g>
</g><g>
</g><g>
</g><g>
</g><g>
</g><g>
</g><g>
</g><path d="M 370.62713623046875 62.6966438293457" style="fill: rgb(239, 114, 173); fill-opacity: 1; stroke: rgb(0, 0, 0); stroke-opacity: 1; stroke-width: 0; paint-order: fill;"/></g><g transform="matrix(8.734713554382324, 0, 0, 8.734713554382324, 1.3958282470703125, 0.677473783493042)"><g>
</g><g>
</g><g>
</g><g>
</g><g>
</g><g>
</g><g>
</g><g>
</g><g>
</g><g>
</g><g>
</g><g>
</g><g>
</g><g>
</g><g>
</g></g><g transform="matrix(8.734713554382324, 0, 0, 8.734713554382324, 1.3958282470703125, 0.677473783493042)"><g transform="matrix(0.9999999999999999, 0, 0, 1, -11.930528249977044, -7.10751042273219)">
	
	<path style="fill-rule:evenodd;clip-rule:evenodd;fill:#FFFFFF;" d="M53.979,80.702h4.403c0,0,1.33-0.146,2.009-0.878&#10;&#9;&#9;c0.625-0.672,0.605-1.934,0.605-1.934s-0.086-5.908,2.656-6.778c2.703-0.857,6.174,5.71,9.853,8.235&#10;&#9;&#9;c2.782,1.911,4.896,1.492,4.896,1.492l9.837-0.137c0,0,5.146-0.317,2.706-4.363c-0.2-0.331-1.421-2.993-7.314-8.463&#10;&#9;&#9;c-6.168-5.725-5.342-4.799,2.088-14.702c4.525-6.031,6.334-9.713,5.769-11.29c-0.539-1.502-3.867-1.105-3.867-1.105l-11.076,0.069&#10;&#9;&#9;c0,0-0.821-0.112-1.43,0.252c-0.595,0.357-0.978,1.189-0.978,1.189s-1.753,4.667-4.091,8.636c-4.932,8.375-6.904,8.817-7.71,8.297&#10;&#9;&#9;c-1.875-1.212-1.407-4.869-1.407-7.467c0-8.116,1.231-11.5-2.397-12.376c-1.204-0.291-2.09-0.483-5.169-0.514&#10;&#9;&#9;c-3.952-0.041-7.297,0.012-9.191,0.94c-1.26,0.617-2.232,1.992-1.64,2.071c0.732,0.098,2.39,0.447,3.269,1.644&#10;&#9;&#9;c1.135,1.544,1.095,5.012,1.095,5.012s0.652,9.554-1.523,10.741c-1.493,0.814-3.541-0.848-7.938-8.446&#10;&#9;&#9;c-2.253-3.892-3.954-8.194-3.954-8.194s-0.328-0.804-0.913-1.234c-0.71-0.521-1.702-0.687-1.702-0.687l-10.525,0.069&#10;&#9;&#9;c0,0-1.58,0.044-2.16,0.731c-0.516,0.611-0.041,1.875-0.041,1.875s8.24,19.278,17.57,28.993&#10;&#9;&#9;C44.264,81.287,53.979,80.702,53.979,80.702L53.979,80.702z" transform="matrix(0.9999999999999999, 0, 0, 1, 13.19973534412, 4.822954213474993)"/>
</g><g>
</g><g>
</g><g>
</g><g>
</g><g>
</g><g>
</g><g>
</g><g>
</g><g>
</g><g>
</g><g>
</g><g>
</g><g>
</g><g>
</g><g>
</g></g></svg>